<svg width="30" height="30" viewBox="0 0 30 30" fill="none" xmlns="http://www.w3.org/2000/svg">
<path d="M0 15C0 23.2843 8 29 13.5 29C19.5 21 22 12 14 1C7.5 0.5 0 6.71573 0 15Z" fill="#FFC665"/>
<circle cx="15" cy="15" r="13.5" stroke="#4D4D4D" stroke-width="3"/>
<path d="M14.7624 5.73172C14.8372 5.50139 15.163 5.50139 15.2379 5.73172L17.1891 11.737C17.2226 11.84 17.3186 11.9098 17.4269 11.9098H23.7413C23.9834 11.9098 24.0841 12.2197 23.8882 12.362L18.7798 16.0735C18.6922 16.1372 18.6555 16.25 18.689 16.353L20.6402 22.3584C20.715 22.5887 20.4514 22.7802 20.2555 22.6379L15.1471 18.9264C15.0594 18.8627 14.9408 18.8627 14.8532 18.9264L9.74474 22.6379C9.54882 22.7802 9.2852 22.5887 9.36003 22.3584L11.3113 16.353C11.3447 16.25 11.3081 16.1372 11.2205 16.0735L6.11203 12.362C5.9161 12.2197 6.0168 11.9098 6.25898 11.9098H12.5733C12.6817 11.9098 12.7776 11.84 12.8111 11.737L14.7624 5.73172Z" stroke="#4D4D4D" stroke-width="3"/>
</svg>
