<svg width="30" height="30" viewBox="0 0 30 30" fill="none" xmlns="http://www.w3.org/2000/svg">
<path fill-rule="evenodd" clip-rule="evenodd" d="M25.2882 13.0742C25.2114 14.3133 24.6199 15.465 23.7419 16.343L14.2593 25.8251L4.77725 16.343C3.89926 15.465 3.30781 14.3133 3.23103 13.0742C3.142 11.6498 3.65611 10.2955 4.65484 9.29626C5.65412 8.29754 7.00839 7.78343 8.43276 7.87245C9.67185 7.94923 10.8236 8.54068 11.7016 9.41867L12.2925 10.0096L13.3218 11.0394L14.7907 12.5078C15.3588 13.0759 16.2796 13.0759 16.8477 12.5078C17.4157 11.9397 17.4157 11.0183 16.8477 10.4502L16.3169 9.91943L16.94 9.29626C17.8648 8.37154 19.0944 7.86244 20.4025 7.86244C21.71 7.86244 22.9396 8.37154 23.8644 9.29626C24.8631 10.2955 25.3772 11.6498 25.2882 13.0742ZM25.8289 7.32716C24.33 5.82935 22.3659 5.08044 20.4024 5.08044C18.4372 5.08044 16.472 5.82991 14.9725 7.32939L14.2592 8.04269L13.5465 7.32939C12.047 5.82991 10.0818 5.08044 8.11663 5.08044C6.15311 5.08044 4.18904 5.82935 2.69011 7.32716C-0.299392 10.3139 -0.139151 15.3609 2.84924 18.3493L3.40119 18.9007L12.7347 28.2348C13.5771 29.0766 14.9419 29.0766 15.7843 28.2348L25.1178 18.9007L25.6698 18.3493C28.6581 15.3609 28.8184 10.3139 25.8289 7.32716Z" fill="#FFC665"/>
<path fill-rule="evenodd" clip-rule="evenodd" d="M26.3284 10.9937C26.2517 12.2328 25.6602 13.3846 24.7822 14.2626L15.2996 23.7446L5.81753 14.2626C4.93954 13.3846 4.34809 12.2328 4.27131 10.9937C4.18229 9.56937 4.6964 8.2151 5.69512 7.21582C6.69441 6.21709 8.04867 5.70298 9.47304 5.79201C10.7121 5.86879 11.8639 6.46024 12.7419 7.33823L13.3327 7.92912L14.3621 8.959L15.831 10.4273C16.399 10.9954 17.3199 10.9954 17.8879 10.4273C18.456 9.85925 18.456 8.93786 17.8879 8.36978L17.3571 7.83898L17.9803 7.21582C18.905 6.29109 20.1347 5.78199 21.4428 5.78199C22.7503 5.78199 23.9799 6.29109 24.9046 7.21582C25.9034 8.2151 26.4175 9.56937 26.3284 10.9937ZM26.8692 5.24672C25.3702 3.74891 23.4062 3 21.4427 3C19.4775 3 17.5123 3.74946 16.0128 5.24895L15.2995 5.96224L14.5868 5.24895C13.0873 3.74946 11.1221 3 9.15691 3C7.1934 3 5.22932 3.74891 3.7304 5.24672C0.740891 8.23344 0.901133 13.2805 3.88953 16.2689L4.44147 16.8203L13.775 26.1543C14.6174 26.9962 15.9822 26.9962 16.8246 26.1543L26.1581 16.8203L26.71 16.2689C29.6984 13.2805 29.8587 8.23344 26.8692 5.24672Z" fill="#4D4D4D"/>
<path d="M9.5 11.5L13 15" stroke="#FFC665" stroke-width="3" stroke-linecap="round"/>
</svg>
