<svg width="30" height="30" viewBox="0 0 30 30" fill="none" xmlns="http://www.w3.org/2000/svg">
<path fill-rule="evenodd" clip-rule="evenodd" d="M24 13H28L27 25H22L24 13ZM8.36812 26.4991C8.36812 26.8505 8.08473 27.1339 7.73276 27.1339H4.46866C4.11726 27.1339 3.83387 26.8505 3.83387 26.4991V16.9998C3.83387 16.6484 4.11726 16.365 4.46866 16.365H7.73276C8.08473 16.365 8.36812 16.6484 8.36812 16.9998V26.4991ZM2.80747 13.5311H9.39404C10.391 13.5311 11.2021 14.3416 11.2021 15.3392V28.1598C11.2021 29.1573 10.391 29.9678 9.39404 29.9678H2.80747C1.8105 29.9678 1 29.1573 1 28.1598V15.3392C1 14.3416 1.8105 13.5311 2.80747 13.5311Z" fill="#FFC665"/>
<path fill-rule="evenodd" clip-rule="evenodd" d="M26.2959 10.2444H23.199C25.3206 1 19.4863 1 19.4863 1H18.0166C16.5426 1 15.4018 2.404 15.5874 3.99867L15.6622 4.66311C15.7365 5.28133 15.6086 5.91111 15.3068 6.44267L13.5338 9.22236C13.1508 9.9024 13.3444 10.7916 13.9676 11.2105C14.5924 11.6305 15.4119 11.4191 15.7964 10.7373L18.0325 7.136C18.2876 6.67956 18.4255 6.15378 18.4255 5.62222C18.4255 5.50089 18.4202 5.38533 18.4038 5.264L18.3295 4.62267C18.2844 4.23324 18.5634 3.88889 18.9236 3.88889H19.4863C19.4911 3.88889 20.1493 3.964 20.5359 4.50133C20.8229 4.9 21.3957 6.18267 20.6261 9.54533L19.8045 13.1333H26.079C26.8794 13.1333 27.4633 13.9653 27.2453 14.8089L25.1402 23.1404C24.9912 23.7124 24.5138 24.1111 23.9681 24.1111H12.4104C11.6371 24.1111 10.9561 24.8021 11.0022 25.6434C11.0224 26.0074 11.1661 26.3373 11.3867 26.5782C11.626 26.8382 11.9601 27 12.3261 27H24.0948C25.7608 27 27.2194 25.7924 27.6596 24.0418L29.8655 15.3462C30.5131 12.7809 28.7416 10.2444 26.2959 10.2444Z" fill="#4D4D4D"/>
<path fill-rule="evenodd" clip-rule="evenodd" d="M9.61544 24.7393C9.61544 25.0907 9.33205 25.3741 8.98007 25.3741H5.71598C5.36457 25.3741 5.08118 25.0907 5.08118 24.7393V15.24C5.08118 14.8886 5.36457 14.6052 5.71598 14.6052H8.98007C9.33205 14.6052 9.61544 14.8886 9.61544 15.24V24.7393ZM10.6414 11.7714H4.05478C3.05781 11.7714 2.24731 12.5819 2.24731 13.5794V26.4C2.24731 27.3975 3.05781 28.208 4.05478 28.208H10.6414C11.6383 28.208 12.4494 27.3975 12.4494 26.4V13.5794C12.4494 12.5819 11.6383 11.7714 10.6414 11.7714Z" fill="#4D4D4D"/>
</svg>
