<svg width="30" height="30" viewBox="0 0 30 30" fill="none" xmlns="http://www.w3.org/2000/svg">
<path d="M2 2H10V28H2V2Z" fill="#FFC665"/>
<path fill-rule="evenodd" clip-rule="evenodd" d="M0 4.09091C0 1.83156 1.93723 0 4.32692 0H20.6731C23.0628 0 25 1.83156 25 4.09091V8.33042C25 9.12698 24.3543 9.77273 23.5577 9.77273C22.7611 9.77273 22.1154 9.12699 22.1154 8.33042V4.09091C22.1154 3.33779 21.4696 2.72727 20.6731 2.72727H4.32692C3.53036 2.72727 2.88462 3.33779 2.88462 4.09091V25.9091C2.88462 26.6622 3.53036 27.2727 4.32692 27.2727H20.6731C21.4696 27.2727 22.1154 26.6622 22.1154 25.9091V24.8514C22.1154 24.0548 22.7611 23.4091 23.5577 23.4091C24.3543 23.4091 25 24.0548 25 24.8514V25.9091C25 28.1684 23.0628 30 20.6731 30H4.32692C1.93723 30 0 28.1684 0 25.9091V4.09091Z" fill="#4D4D4D"/>
<path d="M7 9C7 8.44772 7.44772 8 8 8H17C17.5523 8 18 8.44772 18 9V11C18 11.5523 17.5523 12 17 12H8C7.44771 12 7 11.5523 7 11V9Z" fill="#4D4D4D"/>
<path fill-rule="evenodd" clip-rule="evenodd" d="M25.4002 13.8329C25.862 13.3936 26.7276 13.5048 27.3335 14.0811C27.9395 14.6575 28.0563 15.4808 27.5945 15.9201L25.3293 18.0748L28.1164 20.726C28.5782 21.1652 28.4614 21.9886 27.8555 22.5649C27.2495 23.1413 26.384 23.2525 25.9222 22.8132L23.135 20.162L20.3479 22.8132C19.8861 23.2525 19.0205 23.1413 18.4146 22.5649C17.8086 21.9886 17.6918 21.1652 18.1536 20.726L20.9407 18.0748L18.6755 15.9201C18.2137 15.4808 18.3306 14.6575 18.9365 14.0811C19.5424 13.5048 20.408 13.3936 20.8698 13.8329L23.135 15.9876L25.4002 13.8329Z" fill="#FFC665"/>
<path fill-rule="evenodd" clip-rule="evenodd" d="M22.3645 12.7828C21.9101 12.3505 21.0505 12.4673 20.4445 13.0437C19.8386 13.62 19.7158 14.4377 20.1702 14.87L22.7537 17.3274L20.4 19.5662C19.9455 19.9985 20.0683 20.8162 20.6743 21.3926C21.2802 21.9689 22.1398 22.0857 22.5943 21.6535L24.948 19.4146L27.3017 21.6535C27.7561 22.0857 28.6157 21.9689 29.2216 21.3926C29.8276 20.8162 29.9504 19.9985 29.4959 19.5662L27.1422 17.3274L29.7257 14.87C30.1801 14.4377 30.0573 13.62 29.4514 13.0437C28.8454 12.4673 27.9858 12.3505 27.5314 12.7828L24.948 15.2402L22.3645 12.7828Z" fill="#4D4D4D"/>
</svg>
