<svg width="28" height="30" viewBox="0 0 28 30" fill="none" xmlns="http://www.w3.org/2000/svg">
<path d="M2 2H10V28H2V2Z" fill="#FFC665"/>
<path fill-rule="evenodd" clip-rule="evenodd" d="M0 4.09091C0 1.83156 1.93723 0 4.32692 0H20.6731C23.0628 0 25 1.83156 25 4.09091V10.3304C25 11.127 24.3543 11.7727 23.5577 11.7727C22.7611 11.7727 22.1154 11.127 22.1154 10.3304V4.09091C22.1154 3.33779 21.4696 2.72727 20.6731 2.72727H4.32692C3.53036 2.72727 2.88462 3.33779 2.88462 4.09091V25.9091C2.88462 26.6622 3.53036 27.2727 4.32692 27.2727H20.6731C21.4696 27.2727 22.1154 26.6622 22.1154 25.9091V24.8514C22.1154 24.0548 22.7611 23.4091 23.5577 23.4091C24.3543 23.4091 25 24.0548 25 24.8514V25.9091C25 28.1684 23.0628 30 20.6731 30H4.32692C1.93723 30 0 28.1684 0 25.9091V4.09091Z" fill="#4D4D4D"/>
<path d="M5 6.5C5 5.67157 5.67157 5 6.5 5H18.5C19.3284 5 20 5.67157 20 6.5C20 7.32843 19.3284 8 18.5 8H6.5C5.67157 8 5 7.32843 5 6.5Z" fill="#4D4D4D"/>
<path d="M5 11.5C5 10.6716 5.67157 10 6.5 10H18.5C19.3284 10 20 10.6716 20 11.5C20 12.3284 19.3284 13 18.5 13H6.5C5.67157 13 5 12.3284 5 11.5Z" fill="#4D4D4D"/>
<path fill-rule="evenodd" clip-rule="evenodd" d="M25.661 16.4499C26.1856 15.8087 26.0911 14.8637 25.4499 14.3391C24.8087 13.8145 23.8637 13.909 23.3391 14.5502L19.9894 18.6442L18.6524 17.0398C18.122 16.4034 17.1762 16.3174 16.5398 16.8477C15.9033 17.3781 15.8174 18.3239 16.3477 18.9603L18.8282 21.9369C18.864 21.9816 18.9027 22.0246 18.9442 22.0656C19.0695 22.1901 19.2124 22.2883 19.3656 22.3597C19.5694 22.455 19.7888 22.5012 20.0071 22.5001C20.2252 22.4992 20.4439 22.4509 20.6467 22.3539C20.7993 22.2811 20.9414 22.1815 21.0656 22.0559C21.1067 22.0145 21.1449 21.9713 21.1802 21.9264L25.661 16.4499Z" fill="#FFC665"/>
<path fill-rule="evenodd" clip-rule="evenodd" d="M27.661 15.4499C28.1856 14.8087 28.0911 13.8637 27.4499 13.3391C26.8087 12.8145 25.8637 12.909 25.3391 13.5502L21.9894 17.6442L20.6524 16.0398C20.122 15.4034 19.1762 15.3174 18.5398 15.8477C17.9033 16.3781 17.8174 17.3239 18.3477 17.9603L20.8282 20.9369C20.864 20.9816 20.9027 21.0246 20.9442 21.0656C21.0695 21.1901 21.2124 21.2883 21.3656 21.3597C21.5694 21.455 21.7888 21.5012 22.0071 21.5001C22.2252 21.4992 22.4439 21.4509 22.6467 21.3539C22.7993 21.2811 22.9414 21.1815 23.0656 21.0559C23.1067 21.0145 23.1449 20.9713 23.1802 20.9264L27.661 15.4499Z" fill="#4D4D4D"/>
</svg>
