<svg width="30" height="30" viewBox="0 0 30 30" fill="none" xmlns="http://www.w3.org/2000/svg">
<path fill-rule="evenodd" clip-rule="evenodd" d="M2 10H12V26H2V10ZM26.22 14.326H17.7579C16.3668 14.326 15.2393 15.4536 15.2393 16.8453V20.6118C15.2393 22.0029 16.3668 23.1304 17.7579 23.1304H26.22C27.6111 23.1304 28.7393 22.0029 28.7393 20.6118V16.8453C28.7393 15.4536 27.6111 14.326 26.22 14.326ZM25.8046 20.1957H18.1742V17.2609H25.8046V20.1957Z" fill="#FFC665"/>
<path d="M23.2944 8.45652C25.8829 8.45652 27.9783 10.552 27.9783 13.1404H25.0435C25.0435 12.1778 24.257 11.3913 23.2944 11.3913H5.07468C4.45603 11.3913 3.86673 11.2686 3.32614 11.0503V24.3161C3.32614 25.2787 4.11207 26.0652 5.07468 26.0652H23.2944C24.257 26.0652 25.0435 25.2787 25.0435 24.3161V21.3696H27.9783V24.3161C27.9783 26.9046 25.8829 29 23.2944 29H5.07468C2.48621 29 0.391357 26.9046 0.391357 24.3161V6.68391C0.391357 4.0972 2.48797 2 5.07468 2H23.2944C25.1063 2 26.677 3.02717 27.4559 4.53154C27.9642 5.51235 27.2634 6.68685 26.1582 6.69096C25.6005 6.6933 25.0999 6.374 24.8416 5.8792C24.5476 5.31513 23.9624 4.93478 23.2944 4.93478H5.16097C4.20716 4.93478 3.36253 5.66085 3.32731 6.61407C3.28916 7.63243 4.08977 8.45652 5.07468 8.45652H23.2944Z" fill="#4D4D4D"/>
<path fill-rule="evenodd" clip-rule="evenodd" d="M26.9808 13H18.5186C17.1275 13 16 14.1275 16 15.5192V19.2857C16 20.6768 17.1275 21.8043 18.5186 21.8043H26.9808C28.3719 21.8043 29.5 20.6768 29.5 19.2857V15.5192C29.5 14.1275 28.3719 13 26.9808 13ZM18.9349 18.8697H26.5653V15.9349H18.9349V18.8697Z" fill="#4D4D4D"/>
</svg>
