<svg width="520" height="424" viewBox="0 0 520 424" fill="none" xmlns="http://www.w3.org/2000/svg">
<g filter="url(#filter0_d)">
<rect x="10" y="6" width="500" height="404" rx="20" fill="white"/>
</g>
<rect opacity="0.1" x="10" y="6" width="500" height="404" rx="20" fill="url(#paint0_linear)"/>
<path opacity="0.05" d="M10 38C10 38 126.5 155 287.5 179C448.5 203 500 410 500 410H30C18.9543 410 10 401.046 10 390V38Z" fill="url(#paint1_linear)"/>
<path opacity="0.05" d="M10 36.5C10 36.5 146 179 245 206.5C344 234 476.5 200.5 509.5 90C509.5 151.215 509.5 330.132 509.5 390.127C509.5 401.173 500.546 410 489.5 410H30C18.9543 410 10 401.046 10 390V36.5Z" fill="url(#paint2_linear)"/>
<defs>
<filter id="filter0_d" x="0" y="0" width="520" height="424" filterUnits="userSpaceOnUse" color-interpolation-filters="sRGB">
<feFlood flood-opacity="0" result="BackgroundImageFix"/>
<feColorMatrix in="SourceAlpha" type="matrix" values="0 0 0 0 0 0 0 0 0 0 0 0 0 0 0 0 0 0 127 0"/>
<feOffset dy="4"/>
<feGaussianBlur stdDeviation="5"/>
<feColorMatrix type="matrix" values="0 0 0 0 0 0 0 0 0 0 0 0 0 0 0 0 0 0 0.15 0"/>
<feBlend mode="normal" in2="BackgroundImageFix" result="effect1_dropShadow"/>
<feBlend mode="normal" in="SourceGraphic" in2="effect1_dropShadow" result="shape"/>
</filter>
<linearGradient id="paint0_linear" x1="36.4706" y1="208" x2="510" y2="208" gradientUnits="userSpaceOnUse">
<stop stop-color="#AF3B8D"/>
<stop offset="0.996464" stop-color="#EC53C1"/>
</linearGradient>
<linearGradient id="paint1_linear" x1="35.9412" y1="224" x2="500" y2="224" gradientUnits="userSpaceOnUse">
<stop stop-color="#AF3B8D"/>
<stop offset="0.996464" stop-color="#EC53C1"/>
</linearGradient>
<linearGradient id="paint2_linear" x1="104.024" y1="223.25" x2="533.006" y2="223.25" gradientUnits="userSpaceOnUse">
<stop stop-color="#B92E90"/>
<stop offset="0.996464" stop-color="#F24FC2"/>
</linearGradient>
</defs>
</svg>
